<svg xmlns="http://www.w3.org/2000/svg" width="21" height="30" viewBox="0 0 21 30">
  <g id="Group_752" data-name="Group 752" transform="translate(-602.473 -169.463)">
    <g id="Icon_material-add-location" data-name="Icon material-add-location" transform="translate(594.973 166.463)" fill="none">
      <path d="M18,3A10.512,10.512,0,0,0,7.5,13.5C7.5,21.375,18,33,18,33S28.5,21.375,28.5,13.5A10.512,10.512,0,0,0,18,3Z" stroke="none"/>
      <path d="M 18 6 C 13.8644905090332 6 10.5 9.364490509033203 10.5 13.5 C 10.5 16.06982040405273 12.16777992248535 19.96383094787598 15.19613075256348 24.46471977233887 C 16.17539596557617 25.92015075683594 17.16261291503906 27.24015045166016 17.99999618530273 28.30604934692383 C 18.83743667602539 27.24008941650391 19.82460403442383 25.92015075683594 20.80387115478516 24.46471977233887 C 23.83222007751465 19.96383094787598 25.5 16.06982040405273 25.5 13.5 C 25.5 9.364490509033203 22.1355094909668 6 18 6 M 18 3 C 23.79000091552734 3 28.5 7.709999084472656 28.5 13.5 C 28.5 21.375 18 33 18 33 C 18 33 7.5 21.375 7.5 13.5 C 7.5 7.709999084472656 12.20999908447266 3 18 3 Z" stroke="none" fill="#00823b"/>
    </g>
    <circle id="Ellipse_65" data-name="Ellipse 65" cx="3" cy="3" r="3" transform="translate(610 178)" fill="#00823b"/>
  </g>
</svg>
