<svg id="Group_842" data-name="Group 842" xmlns="http://www.w3.org/2000/svg" xmlns:xlink="http://www.w3.org/1999/xlink" width="37.15" height="33.539" viewBox="0 0 37.15 33.539">
  <defs>
    <clipPath id="clip-path">
      <rect id="Rectangle_948" data-name="Rectangle 948" width="37.15" height="33.539" fill="#00823b"/>
    </clipPath>
  </defs>
  <g id="Group_842-2" data-name="Group 842" clip-path="url(#clip-path)">
    <path id="Path_115" data-name="Path 115" d="M30.3,12.2l-.031.022a1.833,1.833,0,0,0-.7,1.86,13.077,13.077,0,1,1-7.261-9.155,1.813,1.813,0,0,0,1.865-.2L24.2,4.7a1.83,1.83,0,0,0-.329-3.117,16.75,16.75,0,1,0,9.318,11.771A1.857,1.857,0,0,0,30.3,12.2" transform="translate(0)" fill="#00823b"/>
    <path id="Path_116" data-name="Path 116" d="M57.27,12.719a25.855,25.855,0,0,0-4.255,1.828,22.446,22.446,0,0,0-8.925,8.746,31.159,31.159,0,0,0-1.973,4.528c-.426,1.134-1.148,1.742-1.967,1.742a2.536,2.536,0,0,1-1.734-.853q-3.594-3.534-7.134-7.12a2.129,2.129,0,0,1-.27-3.135,1.814,1.814,0,0,1,1.3-.574,2.617,2.617,0,0,1,1.8.9c1.671,1.671,3.314,3.365,5.082,5.17a28.371,28.371,0,0,1,8.231-10.5,26.356,26.356,0,0,1,3.138-2.1,30.156,30.156,0,0,1,4.556-2.132c.31-.114.617-.242.935-.33a3.192,3.192,0,0,1,.847-.122,1.924,1.924,0,0,1,1.919,1.376,2,2,0,0,1-1.555,2.584" transform="translate(-21.79 -6.27)" fill="#00823b"/>
  </g>
</svg>
