<svg id="Group_736" data-name="Group 736" xmlns="http://www.w3.org/2000/svg" xmlns:xlink="http://www.w3.org/1999/xlink" width="48.072" height="48.255" viewBox="0 0 48.072 48.255">
  <defs>
    <clipPath id="clip-path">
      <rect id="Rectangle_850" data-name="Rectangle 850" width="48.072" height="48.255" fill="none"/>
    </clipPath>
  </defs>
  <g id="Group_735" data-name="Group 735" clip-path="url(#clip-path)">
    <path id="Path_85" data-name="Path 85" d="M6.773,11.725C5.614,9.835,5.73,8.092,7.082,6.82a3.567,3.567,0,0,1,4.664-.1c1.49-.743,2.918-1.554,4.425-2.175a31.773,31.773,0,0,1,3.746-1.11c.368-.1.61-.192.717-.642a3.47,3.47,0,0,1,6.8-.022.755.755,0,0,0,.7.656,21.208,21.208,0,0,1,7.678,3.11.775.775,0,0,0,.672.054,3.519,3.519,0,0,1,4.9,4.962c-.026.04-.045.085,0-.008.9,1.8,1.831,3.495,2.6,5.256a20.779,20.779,0,0,1,.978,3.329.837.837,0,0,0,.647.725,3.388,3.388,0,0,1,2.458,3.306,3.35,3.35,0,0,1-2.4,3.338c-.468.153-.555.44-.63.833a21,21,0,0,1-6.47,11.739A20.816,20.816,0,0,1,28.1,45.37a.94.94,0,0,0-.826.654,3.47,3.47,0,0,1-6.47.028.944.944,0,0,0-.8-.681A21.307,21.307,0,0,1,3.1,28.639a1.388,1.388,0,0,0-1.007-1.264A3.289,3.289,0,0,1,0,24.041,3.329,3.329,0,0,1,2.3,20.917a1.094,1.094,0,0,0,.84-.979A20.821,20.821,0,0,1,6.431,12.26c.123-.178.232-.364.341-.535M4.658,27.555a1.6,1.6,0,0,0,0,.191A19.769,19.769,0,0,0,19.837,43.617c.542.117.826.11,1.11-.476a3.222,3.222,0,0,1,3.175-1.886,3.281,3.281,0,0,1,3.058,1.968c.213.44.4.545.869.433A19.505,19.505,0,0,0,42.362,31.477a39.625,39.625,0,0,0,1.17-3.87c-3.131-1.683-3.272-4.765-.482-6.585a.748.748,0,0,0,.233-.633,18.732,18.732,0,0,0-3.161-7.255.93.93,0,0,0-.742-.3,3.5,3.5,0,0,1-4.208-4.119.808.808,0,0,0-.234-.653A18.925,18.925,0,0,0,27.281,5a.921.921,0,0,0-.123.138A3.544,3.544,0,0,1,21,5.315a.742.742,0,0,0-.628-.219A18.021,18.021,0,0,0,13.239,8a.927.927,0,0,0-.328.736,3.474,3.474,0,0,1-4.169,4.073.706.706,0,0,0-.831.332,20.355,20.355,0,0,0-3.138,7.2c-.093.417.035.592.392.783a3.279,3.279,0,0,1,1.767,2.512c.254,1.684-.434,2.88-2.273,3.917" transform="translate(0 0)"/>
    <path id="Path_86" data-name="Path 86" d="M92.353,193.109c-2.979,0-5.961-.083-8.935.026-2.352.086-3.842-1.216-3.438-3.96a7.61,7.61,0,0,1,7.36-6.494c3.342-.042,6.684-.049,10.026,0a7.559,7.559,0,0,1,7.374,7.4,2.748,2.748,0,0,1-2.942,3.025c-3.148.012-6.3,0-9.445,0" transform="translate(-68.299 -156.101)"/>
    <path id="Path_87" data-name="Path 87" d="M133.231,87.568a6.587,6.587,0,1,1-6.581-6.6,6.591,6.591,0,0,1,6.581,6.6" transform="translate(-102.608 -69.198)"/>
  </g>
</svg>
