<svg xmlns="http://www.w3.org/2000/svg" width="54" height="54" viewBox="0 0 54 54">
  <g id="Group_755" data-name="Group 755" transform="translate(-286 -1334)">
    <g id="Ellipse_67" data-name="Ellipse 67" transform="translate(286 1334)" fill="#fff" stroke="#dadada" stroke-width="3">
      <circle cx="27" cy="27" r="27" stroke="none"/>
      <circle cx="27" cy="27" r="25.5" fill="none"/>
    </g>
    <g id="Icon_ionic-ios-menu" data-name="Icon ionic-ios-menu" transform="translate(295 1379) rotate(-90)">
      <path id="Path_95" data-name="Path 95" d="M30.375,12.375H5.625A1.128,1.128,0,0,1,4.5,11.25h0a1.128,1.128,0,0,1,1.125-1.125h24.75A1.128,1.128,0,0,1,31.5,11.25h0A1.128,1.128,0,0,1,30.375,12.375Z" fill="#dadada"/>
      <path id="Path_96" data-name="Path 96" d="M30.375,19.125H5.625A1.128,1.128,0,0,1,4.5,18h0a1.128,1.128,0,0,1,1.125-1.125h24.75A1.128,1.128,0,0,1,31.5,18h0A1.128,1.128,0,0,1,30.375,19.125Z" fill="#dadada"/>
      <path id="Path_97" data-name="Path 97" d="M30.375,25.875H5.625A1.128,1.128,0,0,1,4.5,24.75h0a1.128,1.128,0,0,1,1.125-1.125h24.75A1.128,1.128,0,0,1,31.5,24.75h0A1.128,1.128,0,0,1,30.375,25.875Z" fill="#dadada"/>
    </g>
  </g>
</svg>
