<svg xmlns="http://www.w3.org/2000/svg" width="36.642" height="37.298" viewBox="0 0 36.642 37.298">
  <g id="Group_737" data-name="Group 737" transform="translate(-800.957 -479.271)">
    <path id="Path_88" data-name="Path 88" d="M98.274,198.088c-4.4,0-8.8-.122-13.188.039-3.472.127-5.67-1.795-5.075-5.845A11.232,11.232,0,0,1,90.874,182.7c4.932-.062,9.866-.072,14.8,0a11.156,11.156,0,0,1,10.884,10.921,4.056,4.056,0,0,1-4.342,4.464c-4.646.018-9.293.005-13.94.005" transform="translate(721.043 318.436)"/>
    <path id="Path_89" data-name="Path 89" d="M139.5,90.71a9.723,9.723,0,1,1-9.713-9.744A9.727,9.727,0,0,1,139.5,90.71" transform="translate(689.511 398.305)"/>
  </g>
</svg>
