<svg xmlns="http://www.w3.org/2000/svg" width="30.263" height="30.263" viewBox="0 0 30.263 30.263">
  <path id="Icon_awesome-check-circle" data-name="Icon awesome-check-circle" d="M30.826,15.694A15.132,15.132,0,1,1,15.694.563,15.132,15.132,0,0,1,30.826,15.694ZM13.944,23.706,25.17,12.479a.976.976,0,0,0,0-1.381L23.79,9.718a.976.976,0,0,0-1.381,0l-9.156,9.156L8.979,14.6a.976.976,0,0,0-1.381,0L6.218,15.98a.976.976,0,0,0,0,1.381l6.345,6.345a.976.976,0,0,0,1.381,0Z" transform="translate(-0.563 -0.563)" fill="#4dbd80"/>
</svg>
