<svg xmlns="http://www.w3.org/2000/svg" xmlns:xlink="http://www.w3.org/1999/xlink" width="29.749" height="21.739" viewBox="0 0 29.749 21.739">
  <defs>
    <clipPath id="clip-path">
      <rect id="Rectangle_855" data-name="Rectangle 855" width="19.628" height="21.739" fill="#00823b"/>
    </clipPath>
  </defs>
  <g id="Icon_ionic-md-person-add" data-name="Icon ionic-md-person-add" transform="translate(2 -1.193)">
    <path id="Path_26" data-name="Path 26" d="M6.2,14.632V11.25H4.507v3.382H1.125v1.691H4.507v3.382H6.2V16.324H9.581V14.632Z" transform="translate(-3.125 -6.176)" fill="#00823b"/>
    <g id="Group_748" data-name="Group 748" transform="translate(8.121 1.193)">
      <g id="Group_746" data-name="Group 746" clip-path="url(#clip-path)">
        <path id="Path_91" data-name="Path 91" d="M17.489,7.78a7.493,7.493,0,0,1-2.829,5.946c-.55.454-.514.656.1.964a9.508,9.508,0,0,1,4.638,5.225,3.233,3.233,0,0,1,.229.877.8.8,0,0,1-.658.922.758.758,0,0,1-.931-.5,9.591,9.591,0,0,0-1.692-2.748A8.763,8.763,0,0,0,1.885,20.655c-.071.15-.125.31-.207.453a.867.867,0,0,1-1.2.427.791.791,0,0,1-.4-1.118,9.893,9.893,0,0,1,4.41-5.532c1-.589,1.011-.576.13-1.354A7.824,7.824,0,0,1,2.922,4.1,7.713,7.713,0,0,1,11.733.248,7.612,7.612,0,0,1,17.489,7.78M9.8,13.412a5.765,5.765,0,0,0,5.707-5.734A5.85,5.85,0,0,0,9.791,2.007a5.858,5.858,0,0,0-5.77,5.708,5.883,5.883,0,0,0,5.782,5.7" transform="translate(0 -0.001)" fill="#00823b"/>
      </g>
    </g>
  </g>
</svg>
