<svg xmlns="http://www.w3.org/2000/svg" width="27.141" height="27.141" viewBox="0 0 27.141 27.141">
  <g id="Icon_ionic-ios-arrow-dropup" data-name="Icon ionic-ios-arrow-dropup" transform="translate(27.141 27.141) rotate(180)">
    <path id="Path_17" data-name="Path 17" d="M.367,8.373a1.264,1.264,0,0,1,0-1.781L6.611.367A1.258,1.258,0,0,1,8.346.328L14.5,6.461a1.257,1.257,0,1,1-1.775,1.781L7.439,3.036,2.148,8.379A1.258,1.258,0,0,1,.367,8.373Z" transform="translate(6.131 8.153)"/>
    <path id="Path_18" data-name="Path 18" d="M13.57,27.141A13.57,13.57,0,1,0,0,13.57,13.568,13.568,0,0,0,13.57,27.141Zm0-2.088a11.478,11.478,0,0,1-8.116-19.6A11.478,11.478,0,1,1,21.687,21.687,11.384,11.384,0,0,1,13.57,25.053Z" transform="translate(0 0)"/>
  </g>
</svg>
