<svg xmlns="http://www.w3.org/2000/svg" width="32" height="30" viewBox="0 0 32 30">
  <g id="Icon_awesome-briefcase-medical" data-name="Icon awesome-briefcase-medical" transform="translate(0 -2.25)" fill="none">
    <path d="M29,8.25H24v-3a3,3,0,0,0-3-3H11a3,3,0,0,0-3,3v3H3a3,3,0,0,0-3,3v18a3,3,0,0,0,3,3H29a3,3,0,0,0,3-3v-18A3,3,0,0,0,29,8.25Z" stroke="none"/>
    <path d="M 11.00045585632324 5.250001907348633 C 11.00030136108398 5.250152587890625 11.00015068054199 5.250303268432617 11 5.250457763671875 L 11 11.25000190734863 L 3.000324249267578 11.25013160705566 C 3.000215530395508 11.25024032592773 3.000106811523438 11.2503490447998 3 11.25000190734863 L 3.000129699707031 29.24967765808105 C 3.000238418579102 29.24978637695312 3.000347137451172 29.2498950958252 3 29.25000190734863 L 28.99967575073242 29.2498722076416 C 28.99978637695312 29.24976348876953 28.99989318847656 29.24965476989746 29 29.25000190734863 L 28.99987030029297 11.25032615661621 C 28.9997615814209 11.25021553039551 28.99965286254883 11.25010871887207 28.99954414367676 11.25000190734863 L 21 11.25000190734863 L 20.99987030029297 5.250326156616211 C 20.99976348876953 5.250217437744141 20.99965286254883 5.25010871887207 20.99954414367676 5.250001907348633 L 11.00045585632324 5.250001907348633 M 11 2.250003814697266 L 21 2.250003814697266 C 22.65625 2.250003814697266 24 3.593751907348633 24 5.250001907348633 L 24 8.250001907348633 L 29 8.250001907348633 C 30.65625 8.250001907348633 32 9.593751907348633 32 11.25000190734863 L 32 29.25000190734863 C 32 30.90625190734863 30.65625 32.25 29 32.25 L 3 32.25 C 1.34375 32.25 0 30.90625190734863 0 29.25000190734863 L 0 11.25000190734863 C 0 9.593751907348633 1.34375 8.250001907348633 3 8.250001907348633 L 8 8.250001907348633 L 8 5.250001907348633 C 8 3.593751907348633 9.34375 2.250003814697266 11 2.250003814697266 Z" stroke="none" fill="#00823b"/>
  </g>
</svg>
